<?xml version="1.0" encoding="UTF-8"?>
<svg width="64" height="64" viewBox="0 0 64 64" xmlns="http://www.w3.org/2000/svg" role="img" aria-label="PyBlog">
  <defs>
    <linearGradient id="g" x1="0" y1="0" x2="1" y2="1">
      <stop offset="0" stop-color="#22c55e"/>
      <stop offset="1" stop-color="#60a5fa"/>
    </linearGradient>
  </defs>


  <rect x="6" y="6" width="52" height="52" rx="14" fill="#111827"/>


  <path d="M20 22c0-2 1.6-3.6 3.6-3.6H42c1.1 0 2 .9 2 2V45c0 1.1-.9 2-2 2H23.6C21.6 47 20 45.4 20 43.4V22z"
        fill="#0b1220" stroke="#374151" stroke-width="2"/>


  <path d="M24 18.4h2.8V47H24c-2.2 0-4-1.8-4-4V22.4c0-2.2 1.8-4 4-4z"
        fill="#111827" stroke="#374151" stroke-width="2"/>

 
  <text x="30.5" y="39.5"
        font-family="system-ui, -apple-system, Segoe UI, Roboto, Arial"
        font-size="18" font-weight="800"
        fill="url(#g)">Py</text>


  <circle cx="44.5" cy="26.5" r="3" fill="url(#g)"/>
</svg>
